# xmcd CD database file
#
# Track frame offsets:
#	150
#	19305
#	36200
#	57247
#	80632
#	95457
#	109320
#	122890
#	144622
#	171607
#	189285
#	208820
#	223907
#	240062
#
# Disc length: 3269 seconds
#
# Revision: 0
# Processed by: cddbd v1.5.1PL2 Copyright (c) Steve Scherf et al.
# Submitted via: CDex 1.51
#
DISCID=d00cc30e
DTITLE=Omar Sosa - Omar, Omar
DYEAR=1900
DGENRE=Jazz
TTITLE0=Remember The Clave
TTITLE1=Guajira Barroca
TTITLE2=Muévete In D
TTITLE3=Breezes
TTITLE4=Angustia With Tumbao
TTITLE5=Campos Verdes
TTITLE6=Anoranza
TTITLE7=Cha Cha Du Nord
TTITLE8=My Three Notes
TTITLE9=Toriteson
TTITLE10=Otra Cosa
TTITLE11=Saubadaba
TTITLE12=Two Crazy Colors
TTITLE13=Rain Falls
EXTD=
EXTT0=
EXTT1=
EXTT2=
EXTT3=
EXTT4=
EXTT5=
EXTT6=
EXTT7=
EXTT8=
EXTT9=
EXTT10=
EXTT11=
EXTT12=
EXTT13=
PLAYORDER=
